<mxfile host="app.diagrams.net" agent="Mozilla/5.0 (Windows NT 10.0; Win64; x64) AppleWebKit/537.36 (KHTML, like Gecko) Chrome/138.0.0.0 Safari/537.36" version="27.2.0">
  <diagram name="User Model Table ERD" id="user-model-table-erd">
    <mxGraphModel dx="664" dy="690" grid="1" gridSize="10" guides="1" tooltips="1" connect="1" arrows="1" fold="1" page="1" pageScale="1" pageWidth="827" pageHeight="1169" math="0" shadow="0">
      <root>
        <mxCell id="0" />
        <mxCell id="1" parent="0" />
        <mxCell id="title" value="USER MODEL - ERD TABLE" style="text;html=1;strokeColor=none;fillColor=none;align=center;verticalAlign=middle;whiteSpace=wrap;rounded=0;fontSize=20;fontStyle=1;fontColor=#000000;" parent="1" vertex="1">
          <mxGeometry x="50" y="20" width="900" height="40" as="geometry" />
        </mxCell>
        <mxCell id="userTable" value="" style="shape=table;startSize=0;container=1;collapsible=0;childLayout=tableLayout;fixedRows=1;rowLines=0;fontStyle=1;align=center;resizeLast=1;strokeColor=#000000;fillColor=#ffffff;" parent="1" vertex="1">
          <mxGeometry x="50" y="80" width="900" height="700" as="geometry" />
        </mxCell>
        <mxCell id="userTableHeader" value="" style="shape=tableRow;horizontal=0;startSize=0;swimlaneHead=0;swimlaneBody=0;fillColor=#4472C4;strokeColor=#000000;top=0;left=0;bottom=0;right=0;" parent="userTable" vertex="1">
          <mxGeometry width="900" height="40" as="geometry" />
        </mxCell>
        <mxCell id="fieldHeader" value="Tên trường" style="shape=partialRectangle;connectable=0;fillColor=#4472C4;align=center;fontStyle=1;fontSize=12;fontColor=#ffffff;" parent="userTableHeader" vertex="1">
          <mxGeometry width="150" height="40" as="geometry">
            <mxRectangle width="150" height="40" as="alternateBounds" />
          </mxGeometry>
        </mxCell>
        <mxCell id="typeHeader" value="Kiểu dữ liệu" style="shape=partialRectangle;connectable=0;fillColor=#4472C4;align=center;fontStyle=1;fontSize=12;fontColor=#ffffff;" parent="userTableHeader" vertex="1">
          <mxGeometry x="150" width="100" height="40" as="geometry">
            <mxRectangle width="100" height="40" as="alternateBounds" />
          </mxGeometry>
        </mxCell>
        <mxCell id="constraintHeader" value="Ràng buộc/Enum" style="shape=partialRectangle;connectable=0;fillColor=#4472C4;align=center;fontStyle=1;fontSize=12;fontColor=#ffffff;" parent="userTableHeader" vertex="1">
          <mxGeometry x="250" width="200" height="40" as="geometry">
            <mxRectangle width="200" height="40" as="alternateBounds" />
          </mxGeometry>
        </mxCell>
        <mxCell id="defaultHeader" value="Giá trị mặc định" style="shape=partialRectangle;connectable=0;fillColor=#4472C4;align=center;fontStyle=1;fontSize=12;fontColor=#ffffff;" parent="userTableHeader" vertex="1">
          <mxGeometry x="450" width="120" height="40" as="geometry">
            <mxRectangle width="120" height="40" as="alternateBounds" />
          </mxGeometry>
        </mxCell>
        <mxCell id="descHeader" value="Mô tả" style="shape=partialRectangle;connectable=0;fillColor=#4472C4;align=center;fontStyle=1;fontSize=12;fontColor=#ffffff;" parent="userTableHeader" vertex="1">
          <mxGeometry x="570" width="330" height="40" as="geometry">
            <mxRectangle width="330" height="40" as="alternateBounds" />
          </mxGeometry>
        </mxCell>
        <mxCell id="row1" value="" style="shape=tableRow;horizontal=0;fillColor=#FFE6CC;strokeColor=#000000;" parent="userTable" vertex="1">
          <mxGeometry y="40" width="900" height="30" as="geometry" />
        </mxCell>
        <mxCell id="r1c1" value="_id" style="shape=partialRectangle;connectable=0;fillColor=#FFE6CC;align=left;fontStyle=1;" parent="row1" vertex="1">
          <mxGeometry x="40" width="150" height="30" as="geometry">
            <mxRectangle width="150" height="30" as="alternateBounds" />
          </mxGeometry>
        </mxCell>
        <mxCell id="r1c2" value="ObjectId" style="shape=partialRectangle;connectable=0;fillColor=#FFE6CC;align=left;" parent="row1" vertex="1">
          <mxGeometry x="190" width="100" height="30" as="geometry">
            <mxRectangle width="100" height="30" as="alternateBounds" />
          </mxGeometry>
        </mxCell>
        <mxCell id="r1c3" value="Primary Key" style="shape=partialRectangle;connectable=0;fillColor=#FFE6CC;align=left;" parent="row1" vertex="1">
          <mxGeometry x="290" width="200" height="30" as="geometry">
            <mxRectangle width="200" height="30" as="alternateBounds" />
          </mxGeometry>
        </mxCell>
        <mxCell id="r1c4" value="Tự động" style="shape=partialRectangle;connectable=0;fillColor=#FFE6CC;align=left;" parent="row1" vertex="1">
          <mxGeometry x="490" width="120" height="30" as="geometry">
            <mxRectangle width="120" height="30" as="alternateBounds" />
          </mxGeometry>
        </mxCell>
        <mxCell id="r1c5" value="Khóa chính MongoDB" style="shape=partialRectangle;connectable=0;fillColor=#FFE6CC;align=left;" parent="row1" vertex="1">
          <mxGeometry x="610" width="290" height="30" as="geometry">
            <mxRectangle width="290" height="30" as="alternateBounds" />
          </mxGeometry>
        </mxCell>
        <mxCell id="row2" value="" style="shape=tableRow;horizontal=0;fillColor=#ffffff;strokeColor=#000000;" parent="userTable" vertex="1">
          <mxGeometry y="70" width="900" height="30" as="geometry" />
        </mxCell>
        <mxCell id="r2c1" value="full_name" style="shape=partialRectangle;connectable=0;fillColor=#ffffff;align=left;" parent="row2" vertex="1">
          <mxGeometry x="40" width="150" height="30" as="geometry">
            <mxRectangle width="150" height="30" as="alternateBounds" />
          </mxGeometry>
        </mxCell>
        <mxCell id="r2c2" value="String" style="shape=partialRectangle;connectable=0;fillColor=#ffffff;align=left;" parent="row2" vertex="1">
          <mxGeometry x="190" width="100" height="30" as="geometry">
            <mxRectangle width="100" height="30" as="alternateBounds" />
          </mxGeometry>
        </mxCell>
        <mxCell id="r2c3" value="required, trim" style="shape=partialRectangle;connectable=0;fillColor=#ffffff;align=left;" parent="row2" vertex="1">
          <mxGeometry x="290" width="200" height="30" as="geometry">
            <mxRectangle width="200" height="30" as="alternateBounds" />
          </mxGeometry>
        </mxCell>
        <mxCell id="r2c4" value="" style="shape=partialRectangle;connectable=0;fillColor=#ffffff;align=left;" parent="row2" vertex="1">
          <mxGeometry x="490" width="120" height="30" as="geometry">
            <mxRectangle width="120" height="30" as="alternateBounds" />
          </mxGeometry>
        </mxCell>
        <mxCell id="r2c5" value="Tên đầy đủ" style="shape=partialRectangle;connectable=0;fillColor=#ffffff;align=left;" parent="row2" vertex="1">
          <mxGeometry x="610" width="290" height="30" as="geometry">
            <mxRectangle width="290" height="30" as="alternateBounds" />
          </mxGeometry>
        </mxCell>
        <mxCell id="row3" value="" style="shape=tableRow;horizontal=0;fillColor=#E6F3FF;strokeColor=#000000;" parent="userTable" vertex="1">
          <mxGeometry y="100" width="900" height="30" as="geometry" />
        </mxCell>
        <mxCell id="r3c1" value="email" style="shape=partialRectangle;connectable=0;fillColor=#E6F3FF;align=left;fontStyle=1;" parent="row3" vertex="1">
          <mxGeometry x="40" width="150" height="30" as="geometry">
            <mxRectangle width="150" height="30" as="alternateBounds" />
          </mxGeometry>
        </mxCell>
        <mxCell id="r3c2" value="String" style="shape=partialRectangle;connectable=0;fillColor=#E6F3FF;align=left;" parent="row3" vertex="1">
          <mxGeometry x="190" width="100" height="30" as="geometry">
            <mxRectangle width="100" height="30" as="alternateBounds" />
          </mxGeometry>
        </mxCell>
        <mxCell id="r3c3" value="required, unique, trim, lowercase, regex" style="shape=partialRectangle;connectable=0;fillColor=#E6F3FF;align=left;" parent="row3" vertex="1">
          <mxGeometry x="290" width="200" height="30" as="geometry">
            <mxRectangle width="200" height="30" as="alternateBounds" />
          </mxGeometry>
        </mxCell>
        <mxCell id="r3c4" value="" style="shape=partialRectangle;connectable=0;fillColor=#E6F3FF;align=left;" parent="row3" vertex="1">
          <mxGeometry x="490" width="120" height="30" as="geometry">
            <mxRectangle width="120" height="30" as="alternateBounds" />
          </mxGeometry>
        </mxCell>
        <mxCell id="r3c5" value="Email người dùng" style="shape=partialRectangle;connectable=0;fillColor=#E6F3FF;align=left;" parent="row3" vertex="1">
          <mxGeometry x="610" width="290" height="30" as="geometry">
            <mxRectangle width="290" height="30" as="alternateBounds" />
          </mxGeometry>
        </mxCell>
        <mxCell id="row4" value="" style="shape=tableRow;horizontal=0;fillColor=#ffffff;strokeColor=#000000;" parent="userTable" vertex="1">
          <mxGeometry y="130" width="900" height="30" as="geometry" />
        </mxCell>
        <mxCell id="r4c1" value="password" style="shape=partialRectangle;connectable=0;fillColor=#ffffff;align=left;" parent="row4" vertex="1">
          <mxGeometry x="40" width="150" height="30" as="geometry">
            <mxRectangle width="150" height="30" as="alternateBounds" />
          </mxGeometry>
        </mxCell>
        <mxCell id="r4c2" value="String" style="shape=partialRectangle;connectable=0;fillColor=#ffffff;align=left;" parent="row4" vertex="1">
          <mxGeometry x="190" width="100" height="30" as="geometry">
            <mxRectangle width="100" height="30" as="alternateBounds" />
          </mxGeometry>
        </mxCell>
        <mxCell id="r4c3" value="required, minlength: 6" style="shape=partialRectangle;connectable=0;fillColor=#ffffff;align=left;" parent="row4" vertex="1">
          <mxGeometry x="290" width="200" height="30" as="geometry">
            <mxRectangle width="200" height="30" as="alternateBounds" />
          </mxGeometry>
        </mxCell>
        <mxCell id="r4c4" value="" style="shape=partialRectangle;connectable=0;fillColor=#ffffff;align=left;" parent="row4" vertex="1">
          <mxGeometry x="490" width="120" height="30" as="geometry">
            <mxRectangle width="120" height="30" as="alternateBounds" />
          </mxGeometry>
        </mxCell>
        <mxCell id="r4c5" value="Mật khẩu (được hash)" style="shape=partialRectangle;connectable=0;fillColor=#ffffff;align=left;" parent="row4" vertex="1">
          <mxGeometry x="610" width="290" height="30" as="geometry">
            <mxRectangle width="290" height="30" as="alternateBounds" />
          </mxGeometry>
        </mxCell>
        <mxCell id="row5" value="" style="shape=tableRow;horizontal=0;fillColor=#E6F3FF;strokeColor=#000000;" parent="userTable" vertex="1">
          <mxGeometry y="160" width="900" height="30" as="geometry" />
        </mxCell>
        <mxCell id="r5c1" value="role" style="shape=partialRectangle;connectable=0;fillColor=#E6F3FF;align=left;" parent="row5" vertex="1">
          <mxGeometry x="40" width="150" height="30" as="geometry">
            <mxRectangle width="150" height="30" as="alternateBounds" />
          </mxGeometry>
        </mxCell>
        <mxCell id="r5c2" value="String" style="shape=partialRectangle;connectable=0;fillColor=#E6F3FF;align=left;" parent="row5" vertex="1">
          <mxGeometry x="190" width="100" height="30" as="geometry">
            <mxRectangle width="100" height="30" as="alternateBounds" />
          </mxGeometry>
        </mxCell>
        <mxCell id="r5c3" value="enum: User, Admin" style="shape=partialRectangle;connectable=0;fillColor=#E6F3FF;align=left;" parent="row5" vertex="1">
          <mxGeometry x="290" width="200" height="30" as="geometry">
            <mxRectangle width="200" height="30" as="alternateBounds" />
          </mxGeometry>
        </mxCell>
        <mxCell id="r5c4" value="User" style="shape=partialRectangle;connectable=0;fillColor=#E6F3FF;align=left;" parent="row5" vertex="1">
          <mxGeometry x="490" width="120" height="30" as="geometry">
            <mxRectangle width="120" height="30" as="alternateBounds" />
          </mxGeometry>
        </mxCell>
        <mxCell id="r5c5" value="Vai trò" style="shape=partialRectangle;connectable=0;fillColor=#E6F3FF;align=left;" parent="row5" vertex="1">
          <mxGeometry x="610" width="290" height="30" as="geometry">
            <mxRectangle width="290" height="30" as="alternateBounds" />
          </mxGeometry>
        </mxCell>
        <mxCell id="row6" value="" style="shape=tableRow;horizontal=0;fillColor=#ffffff;strokeColor=#000000;" parent="userTable" vertex="1">
          <mxGeometry y="190" width="900" height="30" as="geometry" />
        </mxCell>
        <mxCell id="r6c1" value="current_plan_type" style="shape=partialRectangle;connectable=0;fillColor=#ffffff;align=left;" parent="row6" vertex="1">
          <mxGeometry x="40" width="150" height="30" as="geometry">
            <mxRectangle width="150" height="30" as="alternateBounds" />
          </mxGeometry>
        </mxCell>
        <mxCell id="r6c2" value="String" style="shape=partialRectangle;connectable=0;fillColor=#ffffff;align=left;" parent="row6" vertex="1">
          <mxGeometry x="190" width="100" height="30" as="geometry">
            <mxRectangle width="100" height="30" as="alternateBounds" />
          </mxGeometry>
        </mxCell>
        <mxCell id="r6c3" value="enum: free, free_trial, expired, monthly, yearly" style="shape=partialRectangle;connectable=0;fillColor=#ffffff;align=left;" parent="row6" vertex="1">
          <mxGeometry x="290" width="200" height="30" as="geometry">
            <mxRectangle width="200" height="30" as="alternateBounds" />
          </mxGeometry>
        </mxCell>
        <mxCell id="r6c4" value="free_trial" style="shape=partialRectangle;connectable=0;fillColor=#ffffff;align=left;" parent="row6" vertex="1">
          <mxGeometry x="490" width="120" height="30" as="geometry">
            <mxRectangle width="120" height="30" as="alternateBounds" />
          </mxGeometry>
        </mxCell>
        <mxCell id="r6c5" value="Loại gói dịch vụ" style="shape=partialRectangle;connectable=0;fillColor=#ffffff;align=left;" parent="row6" vertex="1">
          <mxGeometry x="610" width="290" height="30" as="geometry">
            <mxRectangle width="290" height="30" as="alternateBounds" />
          </mxGeometry>
        </mxCell>
        <mxCell id="row7" value="" style="shape=tableRow;horizontal=0;fillColor=#E6F3FF;strokeColor=#000000;" parent="userTable" vertex="1">
          <mxGeometry y="220" width="900" height="30" as="geometry" />
        </mxCell>
        <mxCell id="r7c1" value="trial_start_date" style="shape=partialRectangle;connectable=0;fillColor=#E6F3FF;align=left;" parent="row7" vertex="1">
          <mxGeometry x="40" width="150" height="30" as="geometry">
            <mxRectangle width="150" height="30" as="alternateBounds" />
          </mxGeometry>
        </mxCell>
        <mxCell id="r7c2" value="Date" style="shape=partialRectangle;connectable=0;fillColor=#E6F3FF;align=left;" parent="row7" vertex="1">
          <mxGeometry x="190" width="100" height="30" as="geometry">
            <mxRectangle width="100" height="30" as="alternateBounds" />
          </mxGeometry>
        </mxCell>
        <mxCell id="r7c3" value="" style="shape=partialRectangle;connectable=0;fillColor=#E6F3FF;align=left;" parent="row7" vertex="1">
          <mxGeometry x="290" width="200" height="30" as="geometry">
            <mxRectangle width="200" height="30" as="alternateBounds" />
          </mxGeometry>
        </mxCell>
        <mxCell id="r7c4" value="Date.now" style="shape=partialRectangle;connectable=0;fillColor=#E6F3FF;align=left;" parent="row7" vertex="1">
          <mxGeometry x="490" width="120" height="30" as="geometry">
            <mxRectangle width="120" height="30" as="alternateBounds" />
          </mxGeometry>
        </mxCell>
        <mxCell id="r7c5" value="Ngày bắt đầu dùng thử" style="shape=partialRectangle;connectable=0;fillColor=#E6F3FF;align=left;" parent="row7" vertex="1">
          <mxGeometry x="610" width="290" height="30" as="geometry">
            <mxRectangle width="290" height="30" as="alternateBounds" />
          </mxGeometry>
        </mxCell>
        <mxCell id="row8" value="" style="shape=tableRow;horizontal=0;fillColor=#ffffff;strokeColor=#000000;" parent="userTable" vertex="1">
          <mxGeometry y="250" width="900" height="30" as="geometry" />
        </mxCell>
        <mxCell id="r8c1" value="trial_end_date" style="shape=partialRectangle;connectable=0;fillColor=#ffffff;align=left;" parent="row8" vertex="1">
          <mxGeometry x="40" width="150" height="30" as="geometry">
            <mxRectangle width="150" height="30" as="alternateBounds" />
          </mxGeometry>
        </mxCell>
        <mxCell id="r8c2" value="Date" style="shape=partialRectangle;connectable=0;fillColor=#ffffff;align=left;" parent="row8" vertex="1">
          <mxGeometry x="190" width="100" height="30" as="geometry">
            <mxRectangle width="100" height="30" as="alternateBounds" />
          </mxGeometry>
        </mxCell>
        <mxCell id="r8c3" value="" style="shape=partialRectangle;connectable=0;fillColor=#ffffff;align=left;" parent="row8" vertex="1">
          <mxGeometry x="290" width="200" height="30" as="geometry">
            <mxRectangle width="200" height="30" as="alternateBounds" />
          </mxGeometry>
        </mxCell>
        <mxCell id="r8c4" value="+7 ngày" style="shape=partialRectangle;connectable=0;fillColor=#ffffff;align=left;" parent="row8" vertex="1">
          <mxGeometry x="490" width="120" height="30" as="geometry">
            <mxRectangle width="120" height="30" as="alternateBounds" />
          </mxGeometry>
        </mxCell>
        <mxCell id="r8c5" value="Ngày kết thúc dùng thử" style="shape=partialRectangle;connectable=0;fillColor=#ffffff;align=left;" parent="row8" vertex="1">
          <mxGeometry x="610" width="290" height="30" as="geometry">
            <mxRectangle width="290" height="30" as="alternateBounds" />
          </mxGeometry>
        </mxCell>
        <mxCell id="row9" value="" style="shape=tableRow;horizontal=0;fillColor=#E6F3FF;strokeColor=#000000;" parent="userTable" vertex="1">
          <mxGeometry y="280" width="900" height="30" as="geometry" />
        </mxCell>
        <mxCell id="r9c1" value="subscription_start_date" style="shape=partialRectangle;connectable=0;fillColor=#E6F3FF;align=left;" parent="row9" vertex="1">
          <mxGeometry x="40" width="150" height="30" as="geometry">
            <mxRectangle width="150" height="30" as="alternateBounds" />
          </mxGeometry>
        </mxCell>
        <mxCell id="r9c2" value="Date" style="shape=partialRectangle;connectable=0;fillColor=#E6F3FF;align=left;" parent="row9" vertex="1">
          <mxGeometry x="190" width="100" height="30" as="geometry">
            <mxRectangle width="100" height="30" as="alternateBounds" />
          </mxGeometry>
        </mxCell>
        <mxCell id="r9c3" value="" style="shape=partialRectangle;connectable=0;fillColor=#E6F3FF;align=left;" parent="row9" vertex="1">
          <mxGeometry x="290" width="200" height="30" as="geometry">
            <mxRectangle width="200" height="30" as="alternateBounds" />
          </mxGeometry>
        </mxCell>
        <mxCell id="r9c4" value="null" style="shape=partialRectangle;connectable=0;fillColor=#E6F3FF;align=left;" parent="row9" vertex="1">
          <mxGeometry x="490" width="120" height="30" as="geometry">
            <mxRectangle width="120" height="30" as="alternateBounds" />
          </mxGeometry>
        </mxCell>
        <mxCell id="r9c5" value="Ngày bắt đầu gói trả phí" style="shape=partialRectangle;connectable=0;fillColor=#E6F3FF;align=left;" parent="row9" vertex="1">
          <mxGeometry x="610" width="290" height="30" as="geometry">
            <mxRectangle width="290" height="30" as="alternateBounds" />
          </mxGeometry>
        </mxCell>
        <mxCell id="row10" value="" style="shape=tableRow;horizontal=0;fillColor=#ffffff;strokeColor=#000000;" parent="userTable" vertex="1">
          <mxGeometry y="310" width="900" height="30" as="geometry" />
        </mxCell>
        <mxCell id="r10c1" value="subscription_end_date" style="shape=partialRectangle;connectable=0;fillColor=#ffffff;align=left;" parent="row10" vertex="1">
          <mxGeometry x="40" width="150" height="30" as="geometry">
            <mxRectangle width="150" height="30" as="alternateBounds" />
          </mxGeometry>
        </mxCell>
        <mxCell id="r10c2" value="Date" style="shape=partialRectangle;connectable=0;fillColor=#ffffff;align=left;" parent="row10" vertex="1">
          <mxGeometry x="190" width="100" height="30" as="geometry">
            <mxRectangle width="100" height="30" as="alternateBounds" />
          </mxGeometry>
        </mxCell>
        <mxCell id="r10c3" value="" style="shape=partialRectangle;connectable=0;fillColor=#ffffff;align=left;" parent="row10" vertex="1">
          <mxGeometry x="290" width="200" height="30" as="geometry">
            <mxRectangle width="200" height="30" as="alternateBounds" />
          </mxGeometry>
        </mxCell>
        <mxCell id="r10c4" value="null" style="shape=partialRectangle;connectable=0;fillColor=#ffffff;align=left;" parent="row10" vertex="1">
          <mxGeometry x="490" width="120" height="30" as="geometry">
            <mxRectangle width="120" height="30" as="alternateBounds" />
          </mxGeometry>
        </mxCell>
        <mxCell id="r10c5" value="Ngày kết thúc gói trả phí" style="shape=partialRectangle;connectable=0;fillColor=#ffffff;align=left;" parent="row10" vertex="1">
          <mxGeometry x="610" width="290" height="30" as="geometry">
            <mxRectangle width="290" height="30" as="alternateBounds" />
          </mxGeometry>
        </mxCell>
        <mxCell id="row11" value="" style="shape=tableRow;horizontal=0;fillColor=#E6F3FF;strokeColor=#000000;" parent="userTable" vertex="1">
          <mxGeometry y="340" width="900" height="30" as="geometry" />
        </mxCell>
        <mxCell id="r11c1" value="payment_status" style="shape=partialRectangle;connectable=0;fillColor=#E6F3FF;align=left;" parent="row11" vertex="1">
          <mxGeometry x="40" width="150" height="30" as="geometry">
            <mxRectangle width="150" height="30" as="alternateBounds" />
          </mxGeometry>
        </mxCell>
        <mxCell id="r11c2" value="String" style="shape=partialRectangle;connectable=0;fillColor=#E6F3FF;align=left;" parent="row11" vertex="1">
          <mxGeometry x="190" width="100" height="30" as="geometry">
            <mxRectangle width="100" height="30" as="alternateBounds" />
          </mxGeometry>
        </mxCell>
        <mxCell id="r11c3" value="enum: none, pending, completed, failed" style="shape=partialRectangle;connectable=0;fillColor=#E6F3FF;align=left;" parent="row11" vertex="1">
          <mxGeometry x="290" width="200" height="30" as="geometry">
            <mxRectangle width="200" height="30" as="alternateBounds" />
          </mxGeometry>
        </mxCell>
        <mxCell id="r11c4" value="none" style="shape=partialRectangle;connectable=0;fillColor=#E6F3FF;align=left;" parent="row11" vertex="1">
          <mxGeometry x="490" width="120" height="30" as="geometry">
            <mxRectangle width="120" height="30" as="alternateBounds" />
          </mxGeometry>
        </mxCell>
        <mxCell id="r11c5" value="Trạng thái thanh toán" style="shape=partialRectangle;connectable=0;fillColor=#E6F3FF;align=left;" parent="row11" vertex="1">
          <mxGeometry x="610" width="290" height="30" as="geometry">
            <mxRectangle width="290" height="30" as="alternateBounds" />
          </mxGeometry>
        </mxCell>
        <mxCell id="row12" value="" style="shape=tableRow;horizontal=0;fillColor=#ffffff;strokeColor=#000000;" parent="userTable" vertex="1">
          <mxGeometry y="370" width="900" height="30" as="geometry" />
        </mxCell>
        <mxCell id="r12c1" value="last_payment_date" style="shape=partialRectangle;connectable=0;fillColor=#ffffff;align=left;" parent="row12" vertex="1">
          <mxGeometry x="40" width="150" height="30" as="geometry">
            <mxRectangle width="150" height="30" as="alternateBounds" />
          </mxGeometry>
        </mxCell>
        <mxCell id="r12c2" value="Date" style="shape=partialRectangle;connectable=0;fillColor=#ffffff;align=left;" parent="row12" vertex="1">
          <mxGeometry x="190" width="100" height="30" as="geometry">
            <mxRectangle width="100" height="30" as="alternateBounds" />
          </mxGeometry>
        </mxCell>
        <mxCell id="r12c3" value="" style="shape=partialRectangle;connectable=0;fillColor=#ffffff;align=left;" parent="row12" vertex="1">
          <mxGeometry x="290" width="200" height="30" as="geometry">
            <mxRectangle width="200" height="30" as="alternateBounds" />
          </mxGeometry>
        </mxCell>
        <mxCell id="r12c4" value="null" style="shape=partialRectangle;connectable=0;fillColor=#ffffff;align=left;" parent="row12" vertex="1">
          <mxGeometry x="490" width="120" height="30" as="geometry">
            <mxRectangle width="120" height="30" as="alternateBounds" />
          </mxGeometry>
        </mxCell>
        <mxCell id="r12c5" value="Ngày thanh toán gần nhất" style="shape=partialRectangle;connectable=0;fillColor=#ffffff;align=left;" parent="row12" vertex="1">
          <mxGeometry x="610" width="290" height="30" as="geometry">
            <mxRectangle width="290" height="30" as="alternateBounds" />
          </mxGeometry>
        </mxCell>
        <mxCell id="row13" value="" style="shape=tableRow;horizontal=0;fillColor=#E6F3FF;strokeColor=#000000;" parent="userTable" vertex="1">
          <mxGeometry y="400" width="900" height="30" as="geometry" />
        </mxCell>
        <mxCell id="r13c1" value="next_billing_date" style="shape=partialRectangle;connectable=0;fillColor=#E6F3FF;align=left;" parent="row13" vertex="1">
          <mxGeometry x="40" width="150" height="30" as="geometry">
            <mxRectangle width="150" height="30" as="alternateBounds" />
          </mxGeometry>
        </mxCell>
        <mxCell id="r13c2" value="Date" style="shape=partialRectangle;connectable=0;fillColor=#E6F3FF;align=left;" parent="row13" vertex="1">
          <mxGeometry x="190" width="100" height="30" as="geometry">
            <mxRectangle width="100" height="30" as="alternateBounds" />
          </mxGeometry>
        </mxCell>
        <mxCell id="r13c3" value="" style="shape=partialRectangle;connectable=0;fillColor=#E6F3FF;align=left;" parent="row13" vertex="1">
          <mxGeometry x="290" width="200" height="30" as="geometry">
            <mxRectangle width="200" height="30" as="alternateBounds" />
          </mxGeometry>
        </mxCell>
        <mxCell id="r13c4" value="null" style="shape=partialRectangle;connectable=0;fillColor=#E6F3FF;align=left;" parent="row13" vertex="1">
          <mxGeometry x="490" width="120" height="30" as="geometry">
            <mxRectangle width="120" height="30" as="alternateBounds" />
          </mxGeometry>
        </mxCell>
        <mxCell id="r13c5" value="Ngày thanh toán tiếp theo" style="shape=partialRectangle;connectable=0;fillColor=#E6F3FF;align=left;" parent="row13" vertex="1">
          <mxGeometry x="610" width="290" height="30" as="geometry">
            <mxRectangle width="290" height="30" as="alternateBounds" />
          </mxGeometry>
        </mxCell>
        <mxCell id="row14" value="" style="shape=tableRow;horizontal=0;fillColor=#ffffff;strokeColor=#000000;" parent="userTable" vertex="1">
          <mxGeometry y="430" width="900" height="30" as="geometry" />
        </mxCell>
        <mxCell id="r14c1" value="online_status" style="shape=partialRectangle;connectable=0;fillColor=#ffffff;align=left;" parent="row14" vertex="1">
          <mxGeometry x="40" width="150" height="30" as="geometry">
            <mxRectangle width="150" height="30" as="alternateBounds" />
          </mxGeometry>
        </mxCell>
        <mxCell id="r14c2" value="String" style="shape=partialRectangle;connectable=0;fillColor=#ffffff;align=left;" parent="row14" vertex="1">
          <mxGeometry x="190" width="100" height="30" as="geometry">
            <mxRectangle width="100" height="30" as="alternateBounds" />
          </mxGeometry>
        </mxCell>
        <mxCell id="r14c3" value="enum: Online, Offline" style="shape=partialRectangle;connectable=0;fillColor=#ffffff;align=left;" parent="row14" vertex="1">
          <mxGeometry x="290" width="200" height="30" as="geometry">
            <mxRectangle width="200" height="30" as="alternateBounds" />
          </mxGeometry>
        </mxCell>
        <mxCell id="r14c4" value="Offline" style="shape=partialRectangle;connectable=0;fillColor=#ffffff;align=left;" parent="row14" vertex="1">
          <mxGeometry x="490" width="120" height="30" as="geometry">
            <mxRectangle width="120" height="30" as="alternateBounds" />
          </mxGeometry>
        </mxCell>
        <mxCell id="r14c5" value="Trạng thái online" style="shape=partialRectangle;connectable=0;fillColor=#ffffff;align=left;" parent="row14" vertex="1">
          <mxGeometry x="610" width="290" height="30" as="geometry">
            <mxRectangle width="290" height="30" as="alternateBounds" />
          </mxGeometry>
        </mxCell>
        <mxCell id="row15" value="" style="shape=tableRow;horizontal=0;fillColor=#E6F3FF;strokeColor=#000000;" parent="userTable" vertex="1">
          <mxGeometry y="460" width="900" height="30" as="geometry" />
        </mxCell>
        <mxCell id="r15c1" value="avatar" style="shape=partialRectangle;connectable=0;fillColor=#E6F3FF;align=left;" parent="row15" vertex="1">
          <mxGeometry x="40" width="150" height="30" as="geometry">
            <mxRectangle width="150" height="30" as="alternateBounds" />
          </mxGeometry>
        </mxCell>
        <mxCell id="r15c2" value="Object" style="shape=partialRectangle;connectable=0;fillColor=#E6F3FF;align=left;" parent="row15" vertex="1">
          <mxGeometry x="190" width="100" height="30" as="geometry">
            <mxRectangle width="100" height="30" as="alternateBounds" />
          </mxGeometry>
        </mxCell>
        <mxCell id="r15c3" value="data, contentType, uploaded_at" style="shape=partialRectangle;connectable=0;fillColor=#E6F3FF;align=left;" parent="row15" vertex="1">
          <mxGeometry x="290" width="200" height="30" as="geometry">
            <mxRectangle width="200" height="30" as="alternateBounds" />
          </mxGeometry>
        </mxCell>
        <mxCell id="r15c4" value="null" style="shape=partialRectangle;connectable=0;fillColor=#E6F3FF;align=left;" parent="row15" vertex="1">
          <mxGeometry x="490" width="120" height="30" as="geometry">
            <mxRectangle width="120" height="30" as="alternateBounds" />
          </mxGeometry>
        </mxCell>
        <mxCell id="r15c5" value="Ảnh đại diện (buffer)" style="shape=partialRectangle;connectable=0;fillColor=#E6F3FF;align=left;" parent="row15" vertex="1">
          <mxGeometry x="610" width="290" height="30" as="geometry">
            <mxRectangle width="290" height="30" as="alternateBounds" />
          </mxGeometry>
        </mxCell>
        <mxCell id="row16" value="" style="shape=tableRow;horizontal=0;fillColor=#ffffff;strokeColor=#000000;" parent="userTable" vertex="1">
          <mxGeometry y="490" width="900" height="30" as="geometry" />
        </mxCell>
        <mxCell id="r16c1" value="avatar_url" style="shape=partialRectangle;connectable=0;fillColor=#ffffff;align=left;" parent="row16" vertex="1">
          <mxGeometry x="40" width="150" height="30" as="geometry">
            <mxRectangle width="150" height="30" as="alternateBounds" />
          </mxGeometry>
        </mxCell>
        <mxCell id="r16c2" value="String" style="shape=partialRectangle;connectable=0;fillColor=#ffffff;align=left;" parent="row16" vertex="1">
          <mxGeometry x="190" width="100" height="30" as="geometry">
            <mxRectangle width="100" height="30" as="alternateBounds" />
          </mxGeometry>
        </mxCell>
        <mxCell id="r16c3" value="" style="shape=partialRectangle;connectable=0;fillColor=#ffffff;align=left;" parent="row16" vertex="1">
          <mxGeometry x="290" width="200" height="30" as="geometry">
            <mxRectangle width="200" height="30" as="alternateBounds" />
          </mxGeometry>
        </mxCell>
        <mxCell id="r16c4" value="null" style="shape=partialRectangle;connectable=0;fillColor=#ffffff;align=left;" parent="row16" vertex="1">
          <mxGeometry x="490" width="120" height="30" as="geometry">
            <mxRectangle width="120" height="30" as="alternateBounds" />
          </mxGeometry>
        </mxCell>
        <mxCell id="r16c5" value="Link ảnh đại diện (data url)" style="shape=partialRectangle;connectable=0;fillColor=#ffffff;align=left;" parent="row16" vertex="1">
          <mxGeometry x="610" width="290" height="30" as="geometry">
            <mxRectangle width="290" height="30" as="alternateBounds" />
          </mxGeometry>
        </mxCell>
        <mxCell id="row17" value="" style="shape=tableRow;horizontal=0;fillColor=#E6F3FF;strokeColor=#000000;" parent="userTable" vertex="1">
          <mxGeometry y="520" width="900" height="30" as="geometry" />
        </mxCell>
        <mxCell id="r17c1" value="phone" style="shape=partialRectangle;connectable=0;fillColor=#E6F3FF;align=left;" parent="row17" vertex="1">
          <mxGeometry x="40" width="150" height="30" as="geometry">
            <mxRectangle width="150" height="30" as="alternateBounds" />
          </mxGeometry>
        </mxCell>
        <mxCell id="r17c2" value="String" style="shape=partialRectangle;connectable=0;fillColor=#E6F3FF;align=left;" parent="row17" vertex="1">
          <mxGeometry x="190" width="100" height="30" as="geometry">
            <mxRectangle width="100" height="30" as="alternateBounds" />
          </mxGeometry>
        </mxCell>
        <mxCell id="r17c3" value="trim" style="shape=partialRectangle;connectable=0;fillColor=#E6F3FF;align=left;" parent="row17" vertex="1">
          <mxGeometry x="290" width="200" height="30" as="geometry">
            <mxRectangle width="200" height="30" as="alternateBounds" />
          </mxGeometry>
        </mxCell>
        <mxCell id="r17c4" value="null" style="shape=partialRectangle;connectable=0;fillColor=#E6F3FF;align=left;" parent="row17" vertex="1">
          <mxGeometry x="490" width="120" height="30" as="geometry">
            <mxRectangle width="120" height="30" as="alternateBounds" />
          </mxGeometry>
        </mxCell>
        <mxCell id="r17c5" value="Số điện thoại" style="shape=partialRectangle;connectable=0;fillColor=#E6F3FF;align=left;" parent="row17" vertex="1">
          <mxGeometry x="610" width="290" height="30" as="geometry">
            <mxRectangle width="290" height="30" as="alternateBounds" />
          </mxGeometry>
        </mxCell>
        <mxCell id="row18" value="" style="shape=tableRow;horizontal=0;fillColor=#ffffff;strokeColor=#000000;" parent="userTable" vertex="1">
          <mxGeometry y="550" width="900" height="30" as="geometry" />
        </mxCell>
        <mxCell id="r18c1" value="address" style="shape=partialRectangle;connectable=0;fillColor=#ffffff;align=left;" parent="row18" vertex="1">
          <mxGeometry x="40" width="150" height="30" as="geometry">
            <mxRectangle width="150" height="30" as="alternateBounds" />
          </mxGeometry>
        </mxCell>
        <mxCell id="r18c2" value="String" style="shape=partialRectangle;connectable=0;fillColor=#ffffff;align=left;" parent="row18" vertex="1">
          <mxGeometry x="190" width="100" height="30" as="geometry">
            <mxRectangle width="100" height="30" as="alternateBounds" />
          </mxGeometry>
        </mxCell>
        <mxCell id="r18c3" value="trim" style="shape=partialRectangle;connectable=0;fillColor=#ffffff;align=left;" parent="row18" vertex="1">
          <mxGeometry x="290" width="200" height="30" as="geometry">
            <mxRectangle width="200" height="30" as="alternateBounds" />
          </mxGeometry>
        </mxCell>
        <mxCell id="r18c4" value="null" style="shape=partialRectangle;connectable=0;fillColor=#ffffff;align=left;" parent="row18" vertex="1">
          <mxGeometry x="490" width="120" height="30" as="geometry">
            <mxRectangle width="120" height="30" as="alternateBounds" />
          </mxGeometry>
        </mxCell>
        <mxCell id="r18c5" value="Địa chỉ" style="shape=partialRectangle;connectable=0;fillColor=#ffffff;align=left;" parent="row18" vertex="1">
          <mxGeometry x="610" width="290" height="30" as="geometry">
            <mxRectangle width="290" height="30" as="alternateBounds" />
          </mxGeometry>
        </mxCell>
        <mxCell id="row19" value="" style="shape=tableRow;horizontal=0;fillColor=#E6F3FF;strokeColor=#000000;" parent="userTable" vertex="1">
          <mxGeometry y="580" width="900" height="30" as="geometry" />
        </mxCell>
        <mxCell id="r19c1" value="bio" style="shape=partialRectangle;connectable=0;fillColor=#E6F3FF;align=left;" parent="row19" vertex="1">
          <mxGeometry x="40" width="150" height="30" as="geometry">
            <mxRectangle width="150" height="30" as="alternateBounds" />
          </mxGeometry>
        </mxCell>
        <mxCell id="r19c2" value="String" style="shape=partialRectangle;connectable=0;fillColor=#E6F3FF;align=left;" parent="row19" vertex="1">
          <mxGeometry x="190" width="100" height="30" as="geometry">
            <mxRectangle width="100" height="30" as="alternateBounds" />
          </mxGeometry>
        </mxCell>
        <mxCell id="r19c3" value="trim, maxlength: 500" style="shape=partialRectangle;connectable=0;fillColor=#E6F3FF;align=left;" parent="row19" vertex="1">
          <mxGeometry x="290" width="200" height="30" as="geometry">
            <mxRectangle width="200" height="30" as="alternateBounds" />
          </mxGeometry>
        </mxCell>
        <mxCell id="r19c4" value="null" style="shape=partialRectangle;connectable=0;fillColor=#E6F3FF;align=left;" parent="row19" vertex="1">
          <mxGeometry x="490" width="120" height="30" as="geometry">
            <mxRectangle width="120" height="30" as="alternateBounds" />
          </mxGeometry>
        </mxCell>
        <mxCell id="r19c5" value="Giới thiệu bản thân" style="shape=partialRectangle;connectable=0;fillColor=#E6F3FF;align=left;" parent="row19" vertex="1">
          <mxGeometry x="610" width="290" height="30" as="geometry">
            <mxRectangle width="290" height="30" as="alternateBounds" />
          </mxGeometry>
        </mxCell>
        <mxCell id="row20" value="" style="shape=tableRow;horizontal=0;fillColor=#ffffff;strokeColor=#000000;" parent="userTable" vertex="1">
          <mxGeometry y="610" width="900" height="30" as="geometry" />
        </mxCell>
        <mxCell id="r20c1" value="isActive" style="shape=partialRectangle;connectable=0;fillColor=#ffffff;align=left;" parent="row20" vertex="1">
          <mxGeometry x="40" width="150" height="30" as="geometry">
            <mxRectangle width="150" height="30" as="alternateBounds" />
          </mxGeometry>
        </mxCell>
        <mxCell id="r20c2" value="Boolean" style="shape=partialRectangle;connectable=0;fillColor=#ffffff;align=left;" parent="row20" vertex="1">
          <mxGeometry x="190" width="100" height="30" as="geometry">
            <mxRectangle width="100" height="30" as="alternateBounds" />
          </mxGeometry>
        </mxCell>
        <mxCell id="r20c3" value="" style="shape=partialRectangle;connectable=0;fillColor=#ffffff;align=left;" parent="row20" vertex="1">
          <mxGeometry x="290" width="200" height="30" as="geometry">
            <mxRectangle width="200" height="30" as="alternateBounds" />
          </mxGeometry>
        </mxCell>
        <mxCell id="r20c4" value="true" style="shape=partialRectangle;connectable=0;fillColor=#ffffff;align=left;" parent="row20" vertex="1">
          <mxGeometry x="490" width="120" height="30" as="geometry">
            <mxRectangle width="120" height="30" as="alternateBounds" />
          </mxGeometry>
        </mxCell>
        <mxCell id="r20c5" value="Trạng thái hoạt động" style="shape=partialRectangle;connectable=0;fillColor=#ffffff;align=left;" parent="row20" vertex="1">
          <mxGeometry x="610" width="290" height="30" as="geometry">
            <mxRectangle width="290" height="30" as="alternateBounds" />
          </mxGeometry>
        </mxCell>
        <mxCell id="row21" value="" style="shape=tableRow;horizontal=0;fillColor=#E6F3FF;strokeColor=#000000;" parent="userTable" vertex="1">
          <mxGeometry y="640" width="900" height="30" as="geometry" />
        </mxCell>
        <mxCell id="r21c1" value="createdAt" style="shape=partialRectangle;connectable=0;fillColor=#E6F3FF;align=left;" parent="row21" vertex="1">
          <mxGeometry x="40" width="150" height="30" as="geometry">
            <mxRectangle width="150" height="30" as="alternateBounds" />
          </mxGeometry>
        </mxCell>
        <mxCell id="r21c2" value="Date" style="shape=partialRectangle;connectable=0;fillColor=#E6F3FF;align=left;" parent="row21" vertex="1">
          <mxGeometry x="190" width="100" height="30" as="geometry">
            <mxRectangle width="100" height="30" as="alternateBounds" />
          </mxGeometry>
        </mxCell>
        <mxCell id="r21c3" value="" style="shape=partialRectangle;connectable=0;fillColor=#E6F3FF;align=left;" parent="row21" vertex="1">
          <mxGeometry x="290" width="200" height="30" as="geometry">
            <mxRectangle width="200" height="30" as="alternateBounds" />
          </mxGeometry>
        </mxCell>
        <mxCell id="r21c4" value="Tự động" style="shape=partialRectangle;connectable=0;fillColor=#E6F3FF;align=left;" parent="row21" vertex="1">
          <mxGeometry x="490" width="120" height="30" as="geometry">
            <mxRectangle width="120" height="30" as="alternateBounds" />
          </mxGeometry>
        </mxCell>
        <mxCell id="r21c5" value="Ngày tạo" style="shape=partialRectangle;connectable=0;fillColor=#E6F3FF;align=left;" parent="row21" vertex="1">
          <mxGeometry x="610" width="290" height="30" as="geometry">
            <mxRectangle width="290" height="30" as="alternateBounds" />
          </mxGeometry>
        </mxCell>
        <mxCell id="row22" value="" style="shape=tableRow;horizontal=0;fillColor=#ffffff;strokeColor=#000000;" parent="userTable" vertex="1">
          <mxGeometry y="670" width="900" height="30" as="geometry" />
        </mxCell>
        <mxCell id="r22c1" value="updatedAt" style="shape=partialRectangle;connectable=0;fillColor=#ffffff;align=left;" parent="row22" vertex="1">
          <mxGeometry x="40" width="150" height="30" as="geometry">
            <mxRectangle width="150" height="30" as="alternateBounds" />
          </mxGeometry>
        </mxCell>
        <mxCell id="r22c2" value="Date" style="shape=partialRectangle;connectable=0;fillColor=#ffffff;align=left;" parent="row22" vertex="1">
          <mxGeometry x="190" width="100" height="30" as="geometry">
            <mxRectangle width="100" height="30" as="alternateBounds" />
          </mxGeometry>
        </mxCell>
        <mxCell id="r22c3" value="" style="shape=partialRectangle;connectable=0;fillColor=#ffffff;align=left;" parent="row22" vertex="1">
          <mxGeometry x="290" width="200" height="30" as="geometry">
            <mxRectangle width="200" height="30" as="alternateBounds" />
          </mxGeometry>
        </mxCell>
        <mxCell id="r22c4" value="Tự động" style="shape=partialRectangle;connectable=0;fillColor=#ffffff;align=left;" parent="row22" vertex="1">
          <mxGeometry x="490" width="120" height="30" as="geometry">
            <mxRectangle width="120" height="30" as="alternateBounds" />
          </mxGeometry>
        </mxCell>
        <mxCell id="r22c5" value="Ngày cập nhật" style="shape=partialRectangle;connectable=0;fillColor=#ffffff;align=left;" parent="row22" vertex="1">
          <mxGeometry x="610" width="290" height="30" as="geometry">
            <mxRectangle width="290" height="30" as="alternateBounds" />
          </mxGeometry>
        </mxCell>
      </root>
    </mxGraphModel>
  </diagram>
</mxfile>
